<?xml version="1.0" standalone="no"?><!DOCTYPE svg PUBLIC "-//W3C//DTD SVG 1.1//EN" "http://www.w3.org/Graphics/SVG/1.1/DTD/svg11.dtd"><svg t="1643273710292" class="icon" viewBox="0 0 1024 1024" version="1.1" xmlns="http://www.w3.org/2000/svg" p-id="7084" xmlns:xlink="http://www.w3.org/1999/xlink" width="200" height="200"><defs><style type="text/css"></style></defs><path d="M512 1020.736a103.68 103.68 0 0 1-81.344-39.168L145.344 625.024h8.832C118.144 560.64 95.36 497.152 95.36 416.704c0-233.6 192.384-423.68 428.224-416.448 220.416 6.016 402.112 190.528 404.928 411.2 0.96 72.96-16.896 138.752-58.624 213.568h8.128l-33.28 42.304-251.456 314.24c-19.84 24.896-49.408 39.168-81.28 39.168zM223.232 638.976l248.064 310.144c19.904 24.832 61.504 24.832 81.408 0l249.344-312.192c53.824-84.032 75.392-149.248 74.432-224.896C873.984 219.008 715.072 57.536 522.176 52.288a365.12 365.12 0 0 0-374.72 364.416c0 84.608 29.888 149.248 74.624 220.48l1.152 1.792z" fill="#ffffff" p-id="7085"></path><path d="M512 598.912A182.528 182.528 0 0 1 329.728 416.64 182.528 182.528 0 0 1 512 234.368a182.464 182.464 0 0 1 182.272 182.272A182.464 182.464 0 0 1 512 598.912z m0-312.384a130.368 130.368 0 0 0-130.176 130.176c0 71.808 58.432 130.176 130.176 130.176a130.304 130.304 0 0 0 130.176-130.176A130.432 130.432 0 0 0 512 286.528z" fill="#ffffff" p-id="7086"></path></svg>